<svg width="200" height="100" viewBox="0 0 200 100" fill="none" xmlns="http://www.w3.org/2000/svg">
<path d="M58.1339 39.12C58.1339 41.36 57.2939 43.2 55.6139 44.64C53.9339 46.08 51.8272 46.8 49.2939 46.8C47.8539 46.8 46.2939 46.5467 44.6139 46.04C42.9339 45.56 41.6806 44.8933 40.8539 44.04L40.8139 42.64C40.8139 40.6667 40.9606 38.88 41.2539 37.28H43.4139L43.9739 42.08C45.8139 43.4667 48.0406 44.16 50.6539 44.16L52.0139 44.08C53.5606 43.2533 54.3339 41.8933 54.3339 40C54.3339 38.3733 53.4006 37.0267 51.5339 35.96L45.0539 32.6C42.3606 31 41.0139 28.9467 41.0139 26.44C41.0139 24.3067 41.8939 22.5733 43.6539 21.24C45.4139 19.88 47.6406 19.2 50.3339 19.2C52.2006 19.2 54.4006 19.6133 56.9339 20.44L56.9739 21.84C56.9739 23.7867 56.8272 25.5733 56.5339 27.2H54.3739L53.9739 23.56C52.4539 22.3867 50.6272 21.8 48.4939 21.8L46.6539 21.96C45.3739 22.7333 44.7339 23.9467 44.7339 25.6C44.7339 27.12 45.6539 28.3867 47.4939 29.4L53.8939 32.64C56.7206 34.2667 58.1339 36.4267 58.1339 39.12ZM72.902 19.68C75.702 19.68 77.982 20.4667 79.742 22.04C81.502 23.5867 82.382 25.56 82.382 27.96C82.382 30.2533 81.5687 32.1867 79.942 33.76C78.342 35.3067 76.262 36.12 73.702 36.2H68.262V43.56L72.942 44.12L72.902 46H61.382L61.142 44.72L64.542 43.48V22.08L61.702 21.92L61.742 20L72.902 19.68ZM72.342 33.88C74.342 33.88 75.8354 33.2933 76.822 32.12C77.8087 30.9467 78.302 29.52 78.302 27.84C78.302 26.56 78.0354 25.4 77.502 24.36C76.9687 23.2933 76.1954 22.52 75.182 22.04L68.262 22.64V33.52C69.862 33.76 71.222 33.88 72.342 33.88ZM96.2195 19.2C99.8462 19.2 102.82 20.52 105.14 23.16C107.486 25.8 108.66 29.1867 108.66 33.32C108.66 37.3467 107.526 40.6 105.26 43.08C102.993 45.56 100.086 46.8 96.5395 46.8C92.9395 46.8 89.9795 45.5333 87.6595 43C85.3395 40.4667 84.1795 37.1867 84.1795 33.16C84.1795 29.0533 85.3129 25.7067 87.5795 23.12C89.8462 20.5067 92.7262 19.2 96.2195 19.2ZM91.8995 22.64C90.8062 23.4667 89.9262 24.8133 89.2595 26.68C88.5929 28.52 88.2595 30.4933 88.2595 32.6C88.2595 36.0133 89.0729 38.76 90.6995 40.84C92.3262 42.92 94.5129 43.96 97.2595 43.96C98.2462 43.96 99.2729 43.8267 100.34 43.56C101.593 42.76 102.606 41.4533 103.38 39.64C104.153 37.8267 104.54 35.7867 104.54 33.52C104.54 30.1067 103.726 27.3333 102.1 25.2C100.5 23.04 98.3795 21.96 95.7395 21.96C94.5129 21.96 93.2329 22.1867 91.8995 22.64ZM130.833 38.04C130.887 41.1867 130.727 43.84 130.353 46H110.913L110.673 44.72L114.073 43.48V22.24L110.993 21.88L111.033 20H120.953L121.193 21.28L117.793 22.52V43.32L127.553 42.92L128.593 37.88L130.833 38.04ZM143.587 44.12L143.547 46H132.827L132.587 44.72L135.987 43.48V22.24L132.907 21.88L132.947 20H142.867L143.107 21.28L139.707 22.52V43.68L143.587 44.12ZM157.685 19.68C161.018 19.68 163.805 20.9733 166.045 23.56C168.285 26.12 169.405 29.2133 169.405 32.84C169.405 36.68 168.231 39.8133 165.885 42.24C163.565 44.64 160.511 45.8933 156.725 46H145.445L145.205 44.72L148.605 43.48V22.08L145.765 21.92L145.805 20C150.018 19.7867 153.978 19.68 157.685 19.68ZM156.045 43.36C158.818 43.36 161.045 42.3867 162.725 40.44C164.405 38.4667 165.245 35.9333 165.245 32.84C165.245 30.4667 164.711 28.28 163.645 26.28C162.605 24.28 161.285 22.8667 159.685 22.04L152.325 22.64V42.84C153.631 43.1867 154.871 43.36 156.045 43.36Z" fill="#E02041"/>
<path d="M28.84 79.12L28.8 81H18.08L17.84 79.72C18.6933 79.32 20 78.8533 21.76 78.32L19.64 72.96H8.84L6.6 78.64L10.8 79.12L10.76 81H0.44L0.2 79.72C0.866667 79.4 1.97333 79 3.52 78.52L12.88 55.84L12.6 55.12L15.76 54.04L25.92 78.8L28.84 79.12ZM18.68 70.52L14.2 59.24L9.8 70.52H18.68ZM49.7809 78.08L41.9409 81.6C38.0476 81.6267 34.9276 80.44 32.5809 78.04C30.2343 75.6133 29.0609 72.3733 29.0609 68.32C29.0609 64.24 30.2076 60.8667 32.5009 58.2C34.7943 55.5333 37.7676 54.2 41.4209 54.2C44.4076 54.2 46.9809 55.0133 49.1409 56.64L49.1809 57.88C49.1809 59.7467 48.9409 61.4 48.4609 62.84H46.0609L45.7809 58.76C43.8876 57.6133 41.8076 57.04 39.5409 57.04L37.9009 57.12C36.2476 58.0533 35.0343 59.4667 34.2609 61.36C33.5143 63.2533 33.1409 65.2667 33.1409 67.4C33.1409 70.6267 33.9543 73.2533 35.5809 75.28C37.2076 77.3067 39.3676 78.32 42.0609 78.32L42.9009 78.28L49.0609 76.12L49.7809 78.08ZM77.6291 79.12L77.5891 81H66.8691L66.6291 79.72C67.4824 79.32 68.7891 78.8533 70.5491 78.32L68.4291 72.96H57.6291L55.3891 78.64L59.5891 79.12L59.5491 81H49.2291L48.9891 79.72C49.6557 79.4 50.7624 79 52.3091 78.52L61.6691 55.84L61.3891 55.12L64.5491 54.04L74.7091 78.8L77.6291 79.12ZM67.4691 70.52L62.9891 59.24L58.5891 70.52H67.4691ZM90.1097 54.68C93.443 54.68 96.2297 55.9733 98.4697 58.56C100.71 61.12 101.83 64.2133 101.83 67.84C101.83 71.68 100.656 74.8133 98.3097 77.24C95.9897 79.64 92.9364 80.8933 89.1497 81H77.8697L77.6297 79.72L81.0297 78.48V57.08L78.1897 56.92L78.2297 55C82.443 54.7867 86.403 54.68 90.1097 54.68ZM88.4697 78.36C91.243 78.36 93.4697 77.3867 95.1497 75.44C96.8297 73.4667 97.6697 70.9333 97.6697 67.84C97.6697 65.4667 97.1364 63.28 96.0697 61.28C95.0297 59.28 93.7097 57.8667 92.1097 57.04L84.7497 57.64V77.84C86.0564 78.1867 87.2964 78.36 88.4697 78.36ZM123.201 73.84C123.281 76.48 123.121 78.8667 122.721 81H104.081L103.841 79.72L107.241 78.48V57.08L104.401 56.92L104.441 55H122.721L122.761 56.36C122.761 58.2267 122.614 59.9733 122.321 61.6H120.161L119.681 57.92L110.961 57.32V66.84L120.121 66.16V69.64L110.961 69.24V78.4L120.041 78L121.081 73.68L123.201 73.84ZM160.02 79.12L159.98 81H149.26L149.02 79.72L152.46 78.48L152.22 64.2L152.78 57.6L144.58 80.36L141.1 81.28L132.66 57.92L133.42 64.2L133.06 78.72L136.42 79.12L136.38 81H126.62L126.38 79.72C127.153 79.3467 128.34 78.92 129.94 78.44L130.7 57.24L127.54 56.88L127.58 55H135.62L143.42 76.68L151.1 55H158.42L158.66 56.28C157.993 56.6 157.006 56.96 155.7 57.36L156.06 78.68L160.02 79.12ZM173.663 78.72L176.943 79.12L176.903 81H167.063L166.823 79.72L169.943 78.56V70.92L162.503 57.16L160.023 56.88L160.063 55H169.143L169.383 56.28C168.743 56.6 167.85 56.9333 166.703 57.28L171.063 65.48L172.103 68.72H172.303L177.983 57.24L174.823 56.88L174.863 55H183.663L183.903 56.28C182.97 56.7067 182.023 57.0533 181.063 57.32L173.663 71.04V78.72Z" fill="#E02041"/>
<g filter="url(#filter0_i)">
<path d="M11.72 15.88L11.74 16.58C11.74 17.5533 11.6667 18.4467 11.52 19.26H10.44L10.18 17.26L6.9 17.14V27.8L9.18 28.06L9.16 29H2.98L2.86 28.36L5.04 27.68V17.14L1.76 17.26L1.5 19.26H0.42C0.273333 18.4467 0.2 17.5533 0.2 16.58L0.22 15.88C1.87333 15.9333 3.79333 15.96 5.98 15.96C8.19333 15.96 10.1067 15.9333 11.72 15.88ZM26.1583 28.06L26.1383 29H20.7783L20.6583 28.36L22.3583 27.74V23.26H15.8983V27.84L17.8383 28.06L17.8183 29H12.4583L12.3383 28.36L14.0383 27.74V17.12L12.4983 16.94L12.5183 16H17.4783L17.5983 16.64L15.8983 17.26V21.86H22.3583V17.12L20.8183 16.94L20.8383 16H25.7983L25.9183 16.64L24.2183 17.26V27.84L26.1583 28.06ZM36.6472 25.42C36.6872 26.74 36.6072 27.9333 36.4072 29H27.0872L26.9672 28.36L28.6672 27.74V17.04L27.2472 16.96L27.2672 16H36.4072L36.4272 16.68C36.4272 17.6133 36.3539 18.4867 36.2072 19.3H35.1272L34.8872 17.46L30.5272 17.16V21.92L35.1072 21.58V23.32L30.5272 23.12V27.7L35.0672 27.5L35.5872 25.34L36.6472 25.42Z" fill="#41414C"/>
</g>
<defs>
<filter id="filter0_i" x="0.200012" y="15.88" width="36.4572" height="17.12" filterUnits="userSpaceOnUse" color-interpolation-filters="sRGB">
<feFlood flood-opacity="0" result="BackgroundImageFix"/>
<feBlend mode="normal" in="SourceGraphic" in2="BackgroundImageFix" result="shape"/>
<feColorMatrix in="SourceAlpha" type="matrix" values="0 0 0 0 0 0 0 0 0 0 0 0 0 0 0 0 0 0 127 0" result="hardAlpha"/>
<feOffset dy="4"/>
<feGaussianBlur stdDeviation="2"/>
<feComposite in2="hardAlpha" operator="arithmetic" k2="-1" k3="1"/>
<feColorMatrix type="matrix" values="0 0 0 0 0 0 0 0 0 0 0 0 0 0 0 0 0 0 0.25 0"/>
<feBlend mode="normal" in2="shape" result="effect1_innerShadow"/>
</filter>
</defs>
</svg>
