<svg width="200" height="84" viewBox="0 0 200 84" fill="none" xmlns="http://www.w3.org/2000/svg">
<path d="M63.56 38.76C63.56 41.1333 62.6133 43.0667 60.72 44.56C58.8533 46.0533 56.4933 46.8 53.64 46.8C52.0933 46.8 50.4133 46.56 48.6 46.08C46.7867 45.6267 45.2933 45.0133 44.12 44.24L44.08 43.12C44.08 40.9067 44.2933 38.8 44.72 36.8H47.6L49.56 42.4C51.24 43.1733 53.16 43.56 55.32 43.56C56.7867 42.8667 57.52 41.7467 57.52 40.2C57.52 38.7867 56.6533 37.6 54.92 36.64L48.92 33.6C45.7467 31.7867 44.16 29.5067 44.16 26.76C44.16 24.44 45.12 22.5467 47.04 21.08C48.96 19.6133 51.4267 18.88 54.44 18.88C57.1067 18.88 59.7467 19.36 62.36 20.32C62.36 23.1467 62.1333 25.5867 61.68 27.64H58.48L57.32 23.16C55.7733 22.36 53.92 21.9867 51.76 22.04C50.5333 22.8133 49.92 23.8933 49.92 25.28C49.92 26.08 50.2667 26.8133 50.96 27.48C51.68 28.12 53.12 28.9333 55.28 29.92C57.4667 30.9067 59.0667 31.76 60.08 32.48C61.12 33.1733 61.96 34.04 62.6 35.08C63.24 36.0933 63.56 37.32 63.56 38.76ZM75.525 36.52V43.28L80.325 43.96L80.285 46H66.445L66.205 44.72C67.0317 44.2133 68.1117 43.68 69.445 43.12V22.08L66.485 21.72L66.525 19.68L79.445 19.36C82.5383 19.36 85.0317 20.1867 86.925 21.84C88.845 23.4667 89.805 25.5333 89.805 28.04C89.805 30.4133 88.8983 32.4 87.085 34C85.2717 35.6 82.9383 36.4267 80.085 36.48L75.525 36.52ZM75.525 23.08V32.96C76.5917 33.1733 77.6183 33.28 78.605 33.28C80.2317 33.28 81.4583 32.7733 82.285 31.76C83.1117 30.72 83.525 29.4533 83.525 27.96C83.525 26.8133 83.3117 25.72 82.885 24.68C82.4583 23.64 81.8583 22.9067 81.085 22.48L75.525 23.08ZM103.954 18.88C107.767 18.88 110.9 20.2133 113.354 22.88C115.807 25.52 117.034 28.96 117.034 33.2C117.034 37.28 115.834 40.5733 113.434 43.08C111.06 45.56 108.007 46.8 104.274 46.8C100.434 46.8 97.2871 45.5333 94.8338 43C92.3804 40.4667 91.1538 37.1333 91.1538 33C91.1538 28.84 92.3538 25.4533 94.7538 22.84C97.1804 20.2 100.247 18.88 103.954 18.88ZM100.514 22.96C99.6338 23.7067 98.9138 24.92 98.3538 26.6C97.8204 28.28 97.5538 30.1733 97.5538 32.28C97.5538 35.5067 98.1938 38.1467 99.4738 40.2C100.754 42.2533 102.58 43.28 104.954 43.28C105.567 43.28 106.327 43.16 107.234 42.92C108.247 42.12 109.06 40.8533 109.674 39.12C110.287 37.3867 110.594 35.4533 110.594 33.32C110.594 30.0933 109.94 27.4667 108.634 25.44C107.327 23.4133 105.594 22.4 103.434 22.4C102.527 22.4 101.554 22.5867 100.514 22.96ZM141.146 38.24C141.146 41.44 140.973 44.0267 140.626 46H118.866L118.626 44.72C119.399 44.2133 120.533 43.6667 122.026 43.08V22.16L118.946 21.72L118.986 19.68H131.226L131.466 20.96C130.479 21.5467 129.359 22.0933 128.106 22.6V42.64L136.106 42L137.666 36.48L141.146 36.8V38.24ZM155.614 43.96L155.574 46H142.694L142.454 44.72C143.227 44.2133 144.361 43.6667 145.854 43.08V22.16L142.774 21.72L142.814 19.68H155.054L155.294 20.96C154.307 21.5467 153.187 22.0933 151.934 22.6V43.44L155.614 43.96ZM170.386 19.36C173.133 19.36 175.493 20 177.466 21.28C179.466 22.56 180.986 24.2133 182.026 26.24C183.066 28.2667 183.586 30.4 183.586 32.64C183.586 36.5333 182.373 39.7067 179.946 42.16C177.546 44.6133 174.346 45.8933 170.346 46H157.186L156.946 44.72C157.72 44.2133 158.853 43.6667 160.346 43.08V22.08L157.506 21.72L157.546 19.68C161.386 19.4667 165.666 19.36 170.386 19.36ZM169.466 42.68C171.76 42.68 173.613 41.76 175.026 39.92C176.466 38.08 177.186 35.7333 177.186 32.88C177.186 30.6667 176.72 28.6 175.786 26.68C174.88 24.76 173.693 23.36 172.226 22.48L166.426 23.08V42.2C167.52 42.52 168.533 42.68 169.466 42.68Z" fill="#E02020" style="mix-blend-mode:darken"/>
<path d="M30.04 72.1228L30 74.1628H17.4L17.16 72.8828C17.9067 72.4295 19.0667 71.8695 20.64 71.2028L18.96 66.8828H9.44L7.68 71.6028L11.36 72.1228L11.32 74.1628H0.44L0.2 72.8828C1 72.3762 2.10667 71.8428 3.52 71.2828L12.36 49.5628L11.88 48.3228L17.12 46.8828L27.2 71.7228L30.04 72.1228ZM17.8 63.8428L14.2 54.4028L10.6 63.8428H17.8ZM52.1594 71.2828L43.9594 74.8028C40.6794 74.9095 37.9727 74.3228 35.8394 73.0428C33.7327 71.7628 32.1994 70.0962 31.2394 68.0428C30.2794 65.9628 29.7994 63.7228 29.7994 61.3228C29.7994 58.8695 30.306 56.5495 31.3194 54.3628C32.3327 52.1762 33.8527 50.4162 35.8794 49.0828C37.906 47.7228 40.3594 47.0428 43.2394 47.0428C46.3327 47.0428 49.0794 47.8828 51.4794 49.5628C51.5327 50.4162 51.4794 51.5628 51.3194 53.0028C51.1594 54.4428 50.9194 55.6962 50.5994 56.7628H46.9194L45.9594 51.7628C44.1194 50.9628 42.106 50.5628 39.9194 50.5628C38.6127 51.5495 37.626 52.9362 36.9594 54.7228C36.3194 56.5095 35.9994 58.3895 35.9994 60.3628C35.9994 63.5362 36.7727 66.0562 38.3194 67.9228C39.866 69.7895 41.9594 70.6828 44.5994 70.6028L51.1994 68.4428L52.1594 71.2828ZM80.8994 72.1228L80.8594 74.1628H68.2594L68.0194 72.8828C68.766 72.4295 69.926 71.8695 71.4994 71.2028L69.8194 66.8828H60.2994L58.5394 71.6028L62.2194 72.1228L62.1794 74.1628H51.2994L51.0594 72.8828C51.8594 72.3762 52.966 71.8428 54.3794 71.2828L63.2194 49.5628L62.7394 48.3228L67.9794 46.8828L78.0594 71.7228L80.8994 72.1228ZM68.6594 63.8428L65.0594 54.4028L61.4594 63.8428H68.6594ZM93.8784 47.5228C96.6251 47.5228 98.9851 48.1628 100.958 49.4428C102.958 50.7228 104.478 52.3762 105.518 54.4028C106.558 56.4295 107.078 58.5628 107.078 60.8028C107.078 64.6962 105.865 67.8695 103.438 70.3228C101.038 72.7762 97.8384 74.0562 93.8384 74.1628H80.6784L80.4384 72.8828C81.2118 72.3762 82.3451 71.8295 83.8384 71.2428V50.2428L80.9984 49.8828L81.0384 47.8428C84.8784 47.6295 89.1584 47.5228 93.8784 47.5228ZM92.9584 70.8428C95.2518 70.8428 97.1051 69.9228 98.5184 68.0828C99.9584 66.2428 100.678 63.8962 100.678 61.0428C100.678 58.8295 100.212 56.7628 99.2784 54.8428C98.3718 52.9228 97.1851 51.5228 95.7184 50.6428L89.9184 51.2428V70.3628C91.0118 70.6828 92.0251 70.8428 92.9584 70.8428ZM130.321 66.2028C130.374 68.8162 130.214 71.4695 129.841 74.1628H108.921L108.681 72.8828C109.454 72.3762 110.587 71.8295 112.081 71.2428V50.2428L109.121 49.8828L109.161 47.8428H130.041C130.174 50.0295 129.961 52.5628 129.401 55.4428H126.041L125.361 51.4828L118.161 50.9628V59.5628L126.761 58.8828V62.9228L118.161 62.5628V70.8428L125.641 70.3228L126.961 65.9628L130.321 66.2028ZM169.448 72.2828L169.408 74.1628H156.688L156.448 72.8828C157.221 72.3762 158.355 71.8295 159.848 71.2428L159.728 60.4828L160.288 53.6428L152.888 73.5228L148.288 74.4428L140.848 53.8428L141.488 60.4828L141.288 71.6028L144.648 72.2828L144.608 74.1628H133.568L133.328 72.8828C134.208 72.3495 135.395 71.7762 136.888 71.1628L137.448 50.7228L134.168 50.0428L134.208 48.1628H144.768L144.728 48.2028L151.808 67.9228L159.048 48.1628H168.368L168.608 49.4428C167.755 49.9762 166.661 50.5095 165.328 51.0428L165.688 71.5228L169.448 72.2828ZM185.161 71.6428L188.481 72.1228L188.441 74.1628H176.241L176.001 72.8828C176.828 72.3762 177.908 71.8428 179.241 71.2828V64.2828L171.721 50.2428L169.201 49.8828L169.241 47.8428H179.921L180.161 49.1228L177.921 50.2828L181.681 57.3628L182.761 60.7628H183.001L188.241 50.3228L185.281 49.8828L185.321 47.8428H195.081L195.321 49.1228C194.628 49.5495 193.575 50.0695 192.161 50.6828L185.161 63.6428V71.6428Z" fill="#E02020"/>
<path d="M30.04 72.1228L30 74.1628H17.4L17.16 72.8828C17.9067 72.4295 19.0667 71.8695 20.64 71.2028L18.96 66.8828H9.44L7.68 71.6028L11.36 72.1228L11.32 74.1628H0.44L0.2 72.8828C1 72.3762 2.10667 71.8428 3.52 71.2828L12.36 49.5628L11.88 48.3228L17.12 46.8828L27.2 71.7228L30.04 72.1228ZM17.8 63.8428L14.2 54.4028L10.6 63.8428H17.8ZM52.1594 71.2828L43.9594 74.8028C40.6794 74.9095 37.9727 74.3228 35.8394 73.0428C33.7327 71.7628 32.1994 70.0962 31.2394 68.0428C30.2794 65.9628 29.7994 63.7228 29.7994 61.3228C29.7994 58.8695 30.306 56.5495 31.3194 54.3628C32.3327 52.1762 33.8527 50.4162 35.8794 49.0828C37.906 47.7228 40.3594 47.0428 43.2394 47.0428C46.3327 47.0428 49.0794 47.8828 51.4794 49.5628C51.5327 50.4162 51.4794 51.5628 51.3194 53.0028C51.1594 54.4428 50.9194 55.6962 50.5994 56.7628H46.9194L45.9594 51.7628C44.1194 50.9628 42.106 50.5628 39.9194 50.5628C38.6127 51.5495 37.626 52.9362 36.9594 54.7228C36.3194 56.5095 35.9994 58.3895 35.9994 60.3628C35.9994 63.5362 36.7727 66.0562 38.3194 67.9228C39.866 69.7895 41.9594 70.6828 44.5994 70.6028L51.1994 68.4428L52.1594 71.2828ZM80.8994 72.1228L80.8594 74.1628H68.2594L68.0194 72.8828C68.766 72.4295 69.926 71.8695 71.4994 71.2028L69.8194 66.8828H60.2994L58.5394 71.6028L62.2194 72.1228L62.1794 74.1628H51.2994L51.0594 72.8828C51.8594 72.3762 52.966 71.8428 54.3794 71.2828L63.2194 49.5628L62.7394 48.3228L67.9794 46.8828L78.0594 71.7228L80.8994 72.1228ZM68.6594 63.8428L65.0594 54.4028L61.4594 63.8428H68.6594ZM93.8784 47.5228C96.6251 47.5228 98.9851 48.1628 100.958 49.4428C102.958 50.7228 104.478 52.3762 105.518 54.4028C106.558 56.4295 107.078 58.5628 107.078 60.8028C107.078 64.6962 105.865 67.8695 103.438 70.3228C101.038 72.7762 97.8384 74.0562 93.8384 74.1628H80.6784L80.4384 72.8828C81.2118 72.3762 82.3451 71.8295 83.8384 71.2428V50.2428L80.9984 49.8828L81.0384 47.8428C84.8784 47.6295 89.1584 47.5228 93.8784 47.5228ZM92.9584 70.8428C95.2518 70.8428 97.1051 69.9228 98.5184 68.0828C99.9584 66.2428 100.678 63.8962 100.678 61.0428C100.678 58.8295 100.212 56.7628 99.2784 54.8428C98.3718 52.9228 97.1851 51.5228 95.7184 50.6428L89.9184 51.2428V70.3628C91.0118 70.6828 92.0251 70.8428 92.9584 70.8428ZM130.321 66.2028C130.374 68.8162 130.214 71.4695 129.841 74.1628H108.921L108.681 72.8828C109.454 72.3762 110.587 71.8295 112.081 71.2428V50.2428L109.121 49.8828L109.161 47.8428H130.041C130.174 50.0295 129.961 52.5628 129.401 55.4428H126.041L125.361 51.4828L118.161 50.9628V59.5628L126.761 58.8828V62.9228L118.161 62.5628V70.8428L125.641 70.3228L126.961 65.9628L130.321 66.2028ZM169.448 72.2828L169.408 74.1628H156.688L156.448 72.8828C157.221 72.3762 158.355 71.8295 159.848 71.2428L159.728 60.4828L160.288 53.6428L152.888 73.5228L148.288 74.4428L140.848 53.8428L141.488 60.4828L141.288 71.6028L144.648 72.2828L144.608 74.1628H133.568L133.328 72.8828C134.208 72.3495 135.395 71.7762 136.888 71.1628L137.448 50.7228L134.168 50.0428L134.208 48.1628H144.768L144.728 48.2028L151.808 67.9228L159.048 48.1628H168.368L168.608 49.4428C167.755 49.9762 166.661 50.5095 165.328 51.0428L165.688 71.5228L169.448 72.2828ZM185.161 71.6428L188.481 72.1228L188.441 74.1628H176.241L176.001 72.8828C176.828 72.3762 177.908 71.8428 179.241 71.2828V64.2828L171.721 50.2428L169.201 49.8828L169.241 47.8428H179.921L180.161 49.1228L177.921 50.2828L181.681 57.3628L182.761 60.7628H183.001L188.241 50.3228L185.281 49.8828L185.321 47.8428H195.081L195.321 49.1228C194.628 49.5495 193.575 50.0695 192.161 50.6828L185.161 63.6428V71.6428Z" fill="url(#paint0_linear)" style="mix-blend-mode:color"/>
<g filter="url(#filter0_i)">
<path d="M15.22 14.8L15.24 15.32C15.24 16.36 15.1467 17.4533 14.96 18.6H13.6L13.34 16.34L10.42 16.18V26.74L12.6 27.02L12.58 28H6L5.88 27.36L7.34 26.8L7.98 26.58V16.18L5.06 16.34L4.8 18.6H3.46C3.27333 17.5067 3.18 16.4533 3.18 15.44L3.2 14.8L9.24 14.88C11.36 14.88 13.3533 14.8533 15.22 14.8ZM30.187 27.02L30.167 28H24.267L24.147 27.36L25.847 26.64V22.28H19.907V26.78L21.807 27.02L21.787 28H15.887L15.767 27.36L17.467 26.64V16.1L15.927 15.9L15.947 14.92H21.487L21.607 15.56C21.2737 15.7467 20.707 15.9867 19.907 16.28V20.72H25.847V16.1L24.307 15.9L24.327 14.92H29.867L29.987 15.56C29.6537 15.7467 29.087 15.9867 28.287 16.28V26.78L30.187 27.02ZM41.1633 24.22C41.1899 25.5533 41.1099 26.8133 40.9233 28H31.0433L30.9233 27.36L32.6233 26.64V16.06L31.1833 15.92L31.2033 14.92H40.9833L41.0033 15.48C41.0033 16.4267 40.9099 17.42 40.7233 18.46H39.3433L39.0433 16.54L35.0633 16.28V20.82L39.5233 20.46V22.34L35.0633 22.16V26.52L39.2033 26.28L39.8033 24.12L41.1633 24.22Z" fill="#2E35DE"/>
</g>
<defs>
<filter id="filter0_i" x="3.18005" y="14.8" width="37.9883" height="17.2" filterUnits="userSpaceOnUse" color-interpolation-filters="sRGB">
<feFlood flood-opacity="0" result="BackgroundImageFix"/>
<feBlend mode="normal" in="SourceGraphic" in2="BackgroundImageFix" result="shape"/>
<feColorMatrix in="SourceAlpha" type="matrix" values="0 0 0 0 0 0 0 0 0 0 0 0 0 0 0 0 0 0 127 0" result="hardAlpha"/>
<feOffset dy="4"/>
<feGaussianBlur stdDeviation="2"/>
<feComposite in2="hardAlpha" operator="arithmetic" k2="-1" k3="1"/>
<feColorMatrix type="matrix" values="0 0 0 0 0 0 0 0 0 0 0 0 0 0 0 0 0 0 0.25 0"/>
<feBlend mode="normal" in2="shape" result="effect1_innerShadow"/>
</filter>
<linearGradient id="paint0_linear" x1="102.071" y1="-4.33941" x2="100.081" y2="79.8603" gradientUnits="userSpaceOnUse">
<stop offset="0.520833" stop-color="white" stop-opacity="0"/>
<stop offset="0.911458" stop-color="#2E35DE"/>
</linearGradient>
</defs>
</svg>
